<?xml version="1.0" standalone="no"?>
<svg version="1.0" xmlns="http://www.w3.org/2000/svg"
 width="50px" height="39px" viewBox="0 0 50 39"
 preserveAspectRatio="xMidYMid meet">
<g transform="translate(0.000000,469.000000) scale(0.100000,-0.100000)"
fill="#000000" stroke="none">
<path d="M2022 4268 c-17 -17 -17 -3359 0 -3376 9 -9 112 -12 400 -12 l388 0
0 -228 c0 -164 3 -231 12 -240 17 -17 2759 -17 2776 0 9 9 12 245 12 1002 l0
990 371 369 c262 261 376 380 390 410 23 52 25 137 3 180 -22 45 -321 344
-368 368 -46 24 -128 27 -177 6 -19 -8 -72 -54 -119 -101 -46 -47 -88 -86 -92
-86 -5 0 -8 51 -8 113 0 75 -4 117 -12 125 -9 9 -112 12 -400 12 l-388 0 0
228 c0 164 -3 231 -12 240 -17 17 -2759 17 -2776 0z m2708 -268 l0 -200 -948
0 c-724 0 -951 -3 -960 -12 -7 -7 -12 -34 -12 -60 l0 -48 -152 0 c-134 0 -157
-2 -185 -20 -59 -36 -63 -55 -63 -302 0 -315 2 -318 250 -318 l150 0 0 -80 0
-80 -150 0 c-169 0 -197 -8 -230 -63 -18 -29 -20 -51 -20 -255 0 -247 4 -266
63 -302 28 -18 51 -20 185 -20 l152 0 0 -100 0 -100 -152 0 c-134 0 -157 -2
-185 -20 -59 -36 -63 -55 -63 -302 0 -315 2 -318 250 -318 l150 0 0 -220 0
-220 -360 0 -360 0 0 1620 0 1620 1320 0 1320 0 0 -200z m800 -411 l0 -130
-758 -760 -758 -760 -70 -199 c-68 -197 -69 -199 -89 -181 -42 38 -60 41 -287
41 -327 0 -318 9 -318 -322 0 -327 -9 -318 322 -318 204 0 226 2 255 20 40 24
63 67 63 117 l0 38 168 58 c92 32 246 86 342 119 l175 60 478 477 477 476 0
-923 0 -922 -1320 0 -1320 0 0 1620 0 1620 1320 0 1320 0 0 -131z m435 75 c18
-8 102 -86 188 -172 172 -175 185 -198 151 -263 -20 -39 -132 -159 -148 -159
-6 0 -111 100 -234 223 l-222 222 72 71 c103 100 126 110 193 78z m-3155 -304
l0 -240 -148 0 c-102 0 -152 4 -160 12 -17 17 -17 439 0 456 8 8 58 12 160 12
l148 0 0 -240z m3067 -132 l223 -223 -77 -77 -78 -78 -222 222 c-123 123 -223
227 -223 233 0 13 132 145 145 145 5 0 110 -100 232 -222z m-147 -283 c0 -6
-207 -217 -461 -470 -253 -253 -465 -468 -470 -478 -8 -14 -6 -23 7 -38 9 -10
22 -19 28 -19 6 0 223 212 481 470 258 259 474 470 480 470 13 0 85 -72 85
-85 0 -5 -303 -312 -672 -681 l-673 -671 -150 -52 c-82 -29 -185 -64 -227 -79
l-78 -27 -75 75 c-41 41 -75 81 -75 90 0 9 34 112 75 230 l76 215 677 677 677
678 147 -147 c82 -81 148 -152 148 -158z m-2920 -385 l0 -240 -148 0 c-102 0
-152 4 -160 12 -17 17 -17 439 0 456 8 8 58 12 160 12 l148 0 0 -240z m0 -840
l0 -240 -148 0 c-102 0 -152 4 -160 12 -17 17 -17 439 0 456 8 8 58 12 160 12
l148 0 0 -240z m988 -212 c7 -7 12 -40 12 -80 0 -53 -8 -90 -40 -179 -44 -124
-43 -149 10 -149 32 0 41 -25 18 -48 -17 -17 -439 -17 -456 0 -17 17 -17 439
0 456 17 17 439 17 456 0z"/>
<path d="M3313 3180 c-59 -36 -63 -55 -63 -300 0 -245 4 -264 63 -300 29 -18
51 -20 257 -20 330 0 320 -9 320 322 0 327 9 318 -322 318 -204 0 -226 -2
-255 -20z m485 -72 c7 -7 12 -37 12 -67 0 -52 -1 -53 -18 -38 -10 10 -23 17
-28 17 -5 0 -58 -50 -119 -110 l-111 -110 -44 45 c-46 46 -78 56 -100 30 -6
-8 -9 -23 -6 -33 7 -22 141 -142 158 -142 6 0 68 60 139 133 l128 132 1 -150
c0 -105 -4 -155 -12 -163 -17 -17 -439 -17 -456 0 -17 17 -17 439 0 456 17 17
439 17 456 0z"/>
<path d="M3313 2380 c-59 -36 -63 -55 -63 -300 0 -245 4 -264 63 -300 29 -18
51 -20 257 -20 329 0 320 -9 320 317 0 243 -4 262 -72 303 -30 18 -51 20 -253
20 -201 0 -223 -2 -252 -20z m487 -79 c5 -11 10 -43 10 -72 0 -41 -3 -50 -12
-41 -27 27 -55 11 -153 -88 -55 -55 -104 -100 -110 -100 -6 0 -29 18 -50 40
-22 22 -49 40 -61 40 -29 0 -49 -25 -38 -48 16 -31 130 -132 150 -132 11 0 73
54 146 127 l128 128 0 -146 c0 -99 -4 -149 -12 -157 -17 -17 -439 -17 -456 0
-17 17 -17 439 0 456 9 9 74 12 230 12 205 0 218 -1 228 -19z"/>
<path d="M4502 1707 c-72 -73 -132 -139 -132 -148 0 -20 20 -39 40 -39 9 0 78
63 154 139 124 126 137 141 126 160 -22 43 -50 26 -188 -112z"/>
</g>
</svg>
